<svg width="916" height="296" viewBox="0 0 916 296" fill="none" xmlns="http://www.w3.org/2000/svg">
<path d="M290.49 96.5H250.09V257.3H290.49V96.5Z" fill="#80B7F8"/>
<path d="M283.89 84.97H256.69V152.55H283.89V84.97Z" fill="#80B7F8"/>
<path d="M277.83 77.65H262.74V115.13H277.83V77.65Z" fill="#80B7F8"/>
<path d="M275.43 96.92H265.14V71.37H268.85H272.53H275.43V96.92Z" fill="#80B7F8"/>
<path d="M269.61 85.79H268.49V60.25H268.9H269.29H269.61V85.79Z" fill="#80B7F8"/>
<path d="M272.08 76.96H270.96V51.42H271.37H271.76H272.08V76.96Z" fill="#80B7F8"/>
<path d="M291.56 96.08H249.01V97.79H291.56V96.08Z" fill="#80B7F8"/>
<path d="M284.87 84.14H255.69V85.79H284.87V84.14Z" fill="#80B7F8"/>
<path d="M278.46 76.96H261.64V78.22H278.46V76.96Z" fill="#80B7F8"/>
<path opacity="0.29" d="M260.45 87.71H259.19V94.79H260.45V87.71Z" fill="#CDDBFC"/>
<path opacity="0.29" d="M263.95 87.71H262.69V94.79H263.95V87.71Z" fill="#CDDBFC"/>
<path opacity="0.29" d="M267.44 87.71H266.18V94.79H267.44V87.71Z" fill="#CDDBFC"/>
<path opacity="0.29" d="M270.94 87.71H269.68V94.79H270.94V87.71Z" fill="#CDDBFC"/>
<path opacity="0.29" d="M274.44 87.71H273.18V94.79H274.44V87.71Z" fill="#CDDBFC"/>
<path opacity="0.29" d="M277.94 87.71H276.68V94.79H277.94V87.71Z" fill="#CDDBFC"/>
<path opacity="0.29" d="M281.44 87.71H280.18V94.79H281.44V87.71Z" fill="#CDDBFC"/>
<path d="M256.69 102.91H253.63V111.31H256.69V102.91Z" fill="#CDDBFC"/>
<path opacity="0.29" d="M262.74 102.91H259.68V111.31H262.74V102.91Z" fill="#CDDBFC"/>
<path d="M268.79 102.91H265.73V111.31H268.79V102.91Z" fill="#CDDBFC"/>
<path d="M274.84 102.91H271.78V111.31H274.84V102.91Z" fill="#CDDBFC"/>
<path d="M280.88 102.91H277.83V111.31H280.88V102.91Z" fill="#CDDBFC"/>
<path d="M286.93 102.91H283.88V111.31H286.93V102.91Z" fill="#CDDBFC"/>
<path d="M256.69 116H253.63V124.4H256.69V116Z" fill="#CDDBFC"/>
<path d="M262.74 116H259.68V124.4H262.74V116Z" fill="#CDDBFC"/>
<path d="M268.79 116H265.73V124.4H268.79V116Z" fill="#CDDBFC"/>
<path opacity="0.29" d="M274.84 116H271.78V124.4H274.84V116Z" fill="#CDDBFC"/>
<path d="M280.88 116H277.83V124.4H280.88V116Z" fill="#CDDBFC"/>
<path d="M286.93 116H283.88V124.4H286.93V116Z" fill="#CDDBFC"/>
<path d="M256.69 129.1H253.63V137.5H256.69V129.1Z" fill="#CDDBFC"/>
<path d="M262.74 129.1H259.68V137.5H262.74V129.1Z" fill="#CDDBFC"/>
<path d="M268.79 129.1H265.73V137.5H268.79V129.1Z" fill="#CDDBFC"/>
<path d="M274.84 129.1H271.78V137.5H274.84V129.1Z" fill="#CDDBFC"/>
<path opacity="0.29" d="M280.88 129.1H277.83V137.5H280.88V129.1Z" fill="#CDDBFC"/>
<path opacity="0.29" d="M286.93 129.1H283.88V137.5H286.93V129.1Z" fill="#CDDBFC"/>
<path opacity="0.29" d="M256.69 142.19H253.63V150.59H256.69V142.19Z" fill="#CDDBFC"/>
<path d="M262.74 142.19H259.68V150.59H262.74V142.19Z" fill="#CDDBFC"/>
<path d="M268.79 142.19H265.73V150.59H268.79V142.19Z" fill="#CDDBFC"/>
<path d="M274.84 142.19H271.78V150.59H274.84V142.19Z" fill="#CDDBFC"/>
<path d="M280.88 142.19H277.83V150.59H280.88V142.19Z" fill="#CDDBFC"/>
<path d="M286.93 142.19H283.88V150.59H286.93V142.19Z" fill="#CDDBFC"/>
<path d="M256.69 155.28H253.63V163.68H256.69V155.28Z" fill="#CDDBFC"/>
<path opacity="0.29" d="M262.74 155.28H259.68V163.68H262.74V155.28Z" fill="#CDDBFC"/>
<path d="M268.79 155.28H265.73V163.68H268.79V155.28Z" fill="#CDDBFC"/>
<path opacity="0.29" d="M274.84 155.28H271.78V163.68H274.84V155.28Z" fill="#CDDBFC"/>
<path d="M280.88 155.28H277.83V163.68H280.88V155.28Z" fill="#CDDBFC"/>
<path d="M286.93 155.28H283.88V163.68H286.93V155.28Z" fill="#CDDBFC"/>
<path d="M256.69 168.38H253.63V176.78H256.69V168.38Z" fill="#CDDBFC"/>
<path d="M262.74 168.38H259.68V176.78H262.74V168.38Z" fill="#CDDBFC"/>
<path d="M268.79 168.38H265.73V176.78H268.79V168.38Z" fill="#CDDBFC"/>
<path d="M274.84 168.38H271.78V176.78H274.84V168.38Z" fill="#CDDBFC"/>
<path d="M280.88 168.38H277.83V176.78H280.88V168.38Z" fill="#CDDBFC"/>
<path opacity="0.29" d="M286.93 168.38H283.88V176.78H286.93V168.38Z" fill="#CDDBFC"/>
<path d="M256.69 181.47H253.63V189.87H256.69V181.47Z" fill="#CDDBFC"/>
<path opacity="0.29" d="M262.74 181.47H259.68V189.87H262.74V181.47Z" fill="#B0C3C2"/>
<path opacity="0.29" d="M268.79 181.47H265.73V189.87H268.79V181.47Z" fill="#B0C3C2"/>
<path d="M274.84 181.47H271.78V189.87H274.84V181.47Z" fill="#CDDBFC"/>
<path d="M280.88 181.47H277.83V189.87H280.88V181.47Z" fill="#CDDBFC"/>
<path d="M286.93 181.47H283.88V189.87H286.93V181.47Z" fill="#CDDBFC"/>
<path d="M256.69 194.57H253.63V202.97H256.69V194.57Z" fill="#B0C3C2"/>
<path d="M262.74 194.57H259.68V202.97H262.74V194.57Z" fill="#B0C3C2"/>
<path d="M268.79 194.57H265.73V202.97H268.79V194.57Z" fill="#B0C3C2"/>
<path d="M274.84 194.57H271.78V202.97H274.84V194.57Z" fill="#B0C3C2"/>
<path opacity="0.29" d="M280.88 194.57H277.83V202.97H280.88V194.57Z" fill="#B0C3C2"/>
<path d="M286.93 194.57H283.88V202.97H286.93V194.57Z" fill="#B0C3C2"/>
<path d="M256.69 207.66H253.63V216.06H256.69V207.66Z" fill="#B0C3C2"/>
<path opacity="0.29" d="M262.74 207.66H259.68V216.06H262.74V207.66Z" fill="#B0C3C2"/>
<path d="M268.79 207.66H265.73V216.06H268.79V207.66Z" fill="#B0C3C2"/>
<path d="M274.84 207.66H271.78V216.06H274.84V207.66Z" fill="#B0C3C2"/>
<path d="M280.88 207.66H277.83V216.06H280.88V207.66Z" fill="#B0C3C2"/>
<path d="M286.93 207.66H283.88V216.06H286.93V207.66Z" fill="#B0C3C2"/>
<path d="M256.69 220.76H253.63V229.16H256.69V220.76Z" fill="#B0C3C2"/>
<path d="M262.74 220.76H259.68V229.16H262.74V220.76Z" fill="#B0C3C2"/>
<path d="M268.79 220.76H265.73V229.16H268.79V220.76Z" fill="#B0C3C2"/>
<path opacity="0.29" d="M274.84 220.76H271.78V229.16H274.84V220.76Z" fill="#B0C3C2"/>
<path d="M280.88 220.76H277.83V229.16H280.88V220.76Z" fill="#B0C3C2"/>
<path opacity="0.29" d="M286.93 220.76H283.88V229.16H286.93V220.76Z" fill="#B0C3C2"/>
<path opacity="0.29" d="M256.69 233.85H253.63V242.25H256.69V233.85Z" fill="#B0C3C2"/>
<path d="M262.74 233.85H259.68V242.25H262.74V233.85Z" fill="#B0C3C2"/>
<path opacity="0.29" d="M268.79 233.85H265.73V242.25H268.79V233.85Z" fill="#B0C3C2"/>
<path d="M274.84 233.85H271.78V242.25H274.84V233.85Z" fill="#B0C3C2"/>
<path d="M280.88 233.85H277.83V242.25H280.88V233.85Z" fill="#B0C3C2"/>
<path d="M286.93 233.85H283.88V242.25H286.93V233.85Z" fill="#B0C3C2"/>
<path d="M197.7 102.61H132.76V238.07H197.7V102.61Z" fill="#80B7F8"/>
<path d="M199.54 100.28H130.91V104.11H199.54V100.28Z" fill="#80B7F8"/>
<path d="M195.52 95.38H134.94V113.58H195.52V95.38Z" fill="#80B7F8"/>
<path d="M163.57 87.94H139.58V107.82H163.57V87.94Z" fill="#80B7F8"/>
<path d="M153.46 93.54H139.58V83.07H149.53L153.46 93.54Z" fill="#80B7F8"/>
<path d="M146.52 74.38H145.17V97.69H146.52V74.38Z" fill="#80B7F8"/>
<path d="M145.84 74.39C146.508 74.39 147.05 73.8483 147.05 73.18C147.05 72.5117 146.508 71.97 145.84 71.97C145.172 71.97 144.63 72.5117 144.63 73.18C144.63 73.8483 145.172 74.39 145.84 74.39Z" fill="#B0C3C2"/>
<path d="M735.49 248.39H664.4L655.53 49.22L735.49 65.82V248.39Z" fill="#80B7F8" fill-opacity="0.54"/>
<path d="M425.34 134.64V68.06H414.19V50.22H410.21V24.06H388.26V4.84H386.31V24.06H382.01V0H380.06V24.06H366.19V68.06H359.02V134.64H352.88V255.93H429.66V134.64H425.34Z" fill="#80B7F8"/>
<path d="M891.36 245.92H41.99V266.12H891.36V245.92Z" fill="#7BB4F6"/>
<path d="M541.96 261.17H504.35L519 185.85H541.96V261.17Z" fill="#80B7F8"/>
<path d="M903.32 264.1H11.52V295.95H903.32V264.1Z" fill="#7BB4F7"/>
<path d="M511.14 121.8V88.43H499.06V75.72H492.6V65.05H490.33V46.75H489.75V65.05H487.48V75.72H481.02V88.43H469.03V121.8H466.54V182.39H447.96V251.46H466.54H485.12H513.54V121.8H511.14Z" fill="#80B7F8"/>
<path d="M580.54 160.14H522.09V161.2H524.73V260.04H577.9V161.2H580.54V160.14Z" fill="#80B7F8"/>
<path d="M314 184.76H262.17V267.1H314V184.76Z" fill="#619EE6"/>
<path d="M254.36 226.94H165.23V267.09H254.36V226.94Z" fill="#619EE6"/>
<path d="M232.57 137.24H213V235.84H232.57V137.24Z" fill="#619EE6"/>
<path d="M218.34 110.93H217.32V164.55H218.34V110.93Z" fill="#619EE6"/>
<path d="M221.65 115H220.63V168.62H221.65V115Z" fill="#619EE6"/>
<path d="M226.47 131.14H214.51V144.35H226.47V131.14Z" fill="#619EE6"/>
<path d="M284.92 199.5H250.87V267.1H284.92V199.5Z" fill="#619EE6"/>
<path d="M386.31 127.96H322.39V267.09H386.31V127.96Z" fill="#619EE6"/>
<path d="M380.03 123.18H328.67V146.35H380.03V123.18Z" fill="#619EE6"/>
<path d="M391.27 130.87H317.44V132.5H391.27V130.87Z" fill="#619EE6"/>
<path d="M340.93 196.83H310.81V267.09H340.93V196.83Z" fill="#619EE6"/>
<path d="M129.65 194.16H95.0901V267.09H129.65V194.16Z" fill="#619EE7"/>
<path d="M175.14 174.34H106.27V267.09H175.14V174.34Z" fill="#619EE7"/>
<path d="M176.91 170.78H102.25V174.34H176.91V170.78Z" fill="#619EE7"/>
<path d="M139.58 161.12H109.32V179.93H139.58V161.12Z" fill="#619EE7"/>
<path d="M154.55 161.12H149.47V172.56H154.55V161.12Z" fill="#619EE7"/>
<path d="M165.23 161.12H159.64V172.56H165.23V161.12Z" fill="#619EE7"/>
<path d="M112.38 238.88H76.29V267.09H112.38V238.88Z" fill="#7BB4F7"/>
<path d="M79.7499 226.94H62.6599V267.09H79.7499V226.94Z" fill="#7BB4F7"/>
<path d="M71.19 252.99H41.99V267.09H71.19V252.99Z" fill="#7BB4F7"/>
<path d="M739.88 235.84H380.03V267.1H739.88V235.84Z" fill="#80B7F8"/>
<path d="M711.15 149.31C710.059 149.31 709.009 149.722 708.209 150.464C707.41 151.205 706.921 152.222 706.84 153.31L701.78 153.15C701.78 152.657 701.78 152.16 701.78 151.66C701.789 145.458 700.716 139.303 698.61 133.47L702.84 131.91C703.294 132.934 704.129 133.74 705.167 134.157C706.206 134.575 707.367 134.571 708.403 134.146C709.439 133.721 710.268 132.909 710.714 131.883C711.161 130.856 711.189 129.695 710.794 128.648C710.398 127.601 709.609 126.749 708.596 126.274C707.582 125.799 706.423 125.738 705.365 126.104C704.307 126.471 703.433 127.235 702.93 128.235C702.427 129.235 702.333 130.392 702.67 131.46L698.44 133.02C696 126.49 692.296 120.506 687.54 115.41L690.85 112.31C691.664 113.082 692.748 113.507 693.87 113.493C694.992 113.479 696.064 113.027 696.859 112.235C697.654 111.443 698.108 110.372 698.125 109.249C698.143 108.127 697.722 107.043 696.952 106.226C696.182 105.41 695.124 104.926 694.003 104.877C692.882 104.828 691.786 105.219 690.948 105.966C690.11 106.712 689.597 107.757 689.517 108.876C689.437 109.995 689.797 111.102 690.52 111.96L687.21 115.06C686.87 114.7 686.537 114.343 686.21 113.99C681.289 109.05 675.445 105.126 669.01 102.44L670.83 98.01C671.908 98.3502 673.076 98.2565 674.086 97.7489C675.095 97.2413 675.867 96.3599 676.237 95.2919C676.607 94.224 676.546 93.0538 676.067 92.0303C675.587 91.0069 674.727 90.2108 673.67 89.8113C672.613 89.4119 671.441 89.4407 670.405 89.8916C669.369 90.3424 668.549 91.1798 668.12 92.2256C667.692 93.2714 667.688 94.4431 668.11 95.4916C668.532 96.5401 669.346 97.3826 670.38 97.84L668.54 102.2C662.79 99.8752 656.678 98.5755 650.48 98.36L650.68 92.3H650.82C651.939 92.2197 652.982 91.7085 653.732 90.874C654.481 90.0395 654.877 88.9468 654.837 87.826C654.797 86.7052 654.323 85.6437 653.516 84.865C652.709 84.0863 651.631 83.6511 650.51 83.6511C649.388 83.6511 648.311 84.0863 647.504 84.865C646.696 85.6437 646.223 86.7052 646.183 87.826C646.143 88.9468 646.539 90.0395 647.288 90.874C648.037 91.7085 649.081 92.2197 650.2 92.3L650 98.39H648.51C642.554 98.383 636.639 99.3733 631.01 101.32L629.27 96.37C630.315 95.9324 631.148 95.1043 631.592 94.0619C632.036 93.0195 632.056 91.845 631.647 90.7883C631.238 89.7315 630.433 88.876 629.403 88.4036C628.374 87.9313 627.2 87.8793 626.133 88.2589C625.065 88.6385 624.188 89.4196 623.687 90.4361C623.187 91.4525 623.103 92.6242 623.453 93.7017C623.803 94.7793 624.56 95.6777 625.562 96.2059C626.564 96.7341 627.733 96.8504 628.82 96.53L630.56 101.48C623.761 103.911 617.53 107.705 612.25 112.63L609.09 109.2C609.857 108.37 610.27 107.272 610.24 106.142C610.211 105.012 609.742 103.938 608.932 103.149C608.123 102.359 607.038 101.917 605.907 101.915C604.777 101.914 603.69 102.354 602.879 103.141C602.068 103.928 601.596 105.001 601.564 106.131C601.531 107.261 601.941 108.359 602.706 109.192C603.471 110.024 604.531 110.525 605.659 110.589C606.788 110.652 607.897 110.272 608.75 109.53L611.9 112.9L610.83 113.9C606.437 118.284 602.843 123.4 600.21 129.02L596.21 127.17C596.568 126.104 596.497 124.94 596.011 123.926C595.525 122.912 594.662 122.127 593.606 121.739C592.551 121.35 591.385 121.389 590.358 121.847C589.33 122.304 588.522 123.144 588.104 124.189C587.687 125.233 587.693 126.399 588.121 127.439C588.55 128.479 589.367 129.311 590.399 129.758C591.431 130.204 592.597 130.231 593.648 129.832C594.7 129.433 595.554 128.639 596.03 127.62L600.03 129.46C597.14 135.803 595.529 142.654 595.29 149.62L590.14 149.45C590.077 148.327 589.579 147.272 588.751 146.511C587.923 145.749 586.831 145.34 585.707 145.372C584.582 145.403 583.514 145.872 582.73 146.678C581.945 147.484 581.507 148.565 581.507 149.69C581.507 150.815 581.945 151.896 582.73 152.702C583.514 153.508 584.582 153.977 585.707 154.008C586.831 154.04 587.923 153.631 588.751 152.869C589.579 152.108 590.077 151.053 590.14 149.93L595.29 150.1C595.29 150.593 595.29 151.09 595.29 151.59C595.281 157.792 596.354 163.947 598.46 169.78L594.23 171.34C593.776 170.316 592.941 169.51 591.903 169.093C590.864 168.675 589.703 168.679 588.667 169.104C587.631 169.529 586.802 170.341 586.355 171.367C585.909 172.394 585.881 173.554 586.276 174.602C586.672 175.649 587.46 176.501 588.474 176.976C589.488 177.451 590.647 177.512 591.705 177.146C592.763 176.779 593.637 176.015 594.14 175.015C594.643 174.015 594.736 172.858 594.4 171.79L598.63 170.23C601.07 176.76 604.774 182.744 609.53 187.84L606.22 190.94C605.406 190.168 604.322 189.743 603.2 189.757C602.078 189.771 601.006 190.223 600.211 191.015C599.416 191.807 598.962 192.878 598.944 194.001C598.927 195.123 599.348 196.207 600.118 197.024C600.888 197.84 601.946 198.324 603.067 198.373C604.188 198.422 605.284 198.031 606.122 197.284C606.96 196.538 607.473 195.493 607.553 194.374C607.633 193.255 607.273 192.148 606.55 191.29L609.82 188.2C610.16 188.56 610.493 188.917 610.82 189.27C614.148 192.601 617.9 195.479 621.98 197.83L595.92 245.92H591.24V247.29H588.95V250.02H708.08V247.29H705.82V245.92H701.14L675.07 197.86C678.579 195.84 681.846 193.428 684.81 190.67L689.04 195.18C688.2 195.924 687.683 196.966 687.599 198.085C687.514 199.204 687.87 200.311 688.59 201.172C689.31 202.033 690.337 202.579 691.453 202.695C692.569 202.81 693.686 202.486 694.567 201.79C695.448 201.095 696.023 200.084 696.169 198.971C696.316 197.859 696.023 196.733 695.353 195.833C694.683 194.933 693.688 194.33 692.58 194.152C691.472 193.974 690.338 194.235 689.42 194.88L685.16 190.34L686.23 189.34C690.614 184.948 694.198 179.824 696.82 174.2L701.53 176.37C701.262 177.465 701.432 178.622 702.004 179.594C702.575 180.566 703.503 181.276 704.591 181.575C705.678 181.873 706.839 181.735 707.826 181.191C708.814 180.646 709.55 179.738 709.878 178.66C710.207 177.581 710.101 176.417 709.584 175.414C709.068 174.412 708.18 173.651 707.111 173.293C706.042 172.935 704.875 173.008 703.859 173.497C702.843 173.985 702.058 174.851 701.67 175.91L697.02 173.76C699.91 167.417 701.521 160.566 701.76 153.6L706.83 153.76C706.854 154.609 707.127 155.432 707.616 156.126C708.104 156.821 708.787 157.356 709.578 157.665C710.369 157.973 711.234 158.042 712.064 157.862C712.894 157.682 713.652 157.261 714.245 156.653C714.837 156.044 715.236 155.274 715.394 154.44C715.551 153.605 715.459 152.743 715.128 151.96C714.798 151.178 714.245 150.51 713.537 150.041C712.829 149.571 711.999 149.32 711.15 149.32V149.31ZM700.36 151.62C700.36 152.1 700.36 152.58 700.36 153.06L685.44 152.57C685.44 152.25 685.44 151.917 685.44 151.57C685.444 147.298 684.703 143.058 683.25 139.04L697.25 133.87C699.314 139.56 700.367 145.567 700.36 151.62ZM684.7 152.56L651.42 151.48C651.41 151.267 651.376 151.056 651.32 150.85L682.57 139.34C683.995 143.277 684.723 147.433 684.72 151.62C684.713 151.933 684.707 152.243 684.7 152.55V152.56ZM612.33 150.69L645.61 151.77C645.62 151.983 645.654 152.194 645.71 152.4L614.46 163.9C613.035 159.963 612.307 155.807 612.31 151.62C612.317 151.307 612.323 150.993 612.33 150.68V150.69ZM650.79 149.82L675.07 127.06C678.251 130.494 680.736 134.511 682.39 138.89L651.14 150.39C651.056 150.185 650.948 149.991 650.82 149.81L650.79 149.82ZM650.46 149.47C650.27 149.3 650.058 149.155 649.83 149.04L662.48 118.2C667.109 120.149 671.283 123.037 674.74 126.68L650.46 149.47ZM649.39 148.85C649.214 148.793 649.033 148.753 648.85 148.73L649.93 115.45C654.086 115.607 658.183 116.484 662.04 118.04L649.39 148.85ZM648.39 148.72C648.191 148.73 647.993 148.76 647.8 148.81L636.73 117.41C640.527 116.088 644.519 115.412 648.54 115.41H649.48L648.39 148.72ZM647.39 148.97C647.169 149.067 646.96 149.191 646.77 149.34L624.01 125.06C627.567 121.762 631.749 119.212 636.31 117.56L647.39 148.97ZM646.39 149.67C646.248 149.829 646.124 150.004 646.02 150.19L615.79 136.19C617.713 132.119 620.374 128.44 623.64 125.34L646.39 149.67ZM645.81 150.67C645.731 150.883 645.677 151.104 645.65 151.33L612.35 150.2C612.526 145.522 613.613 140.922 615.55 136.66L645.81 150.67ZM645.91 152.89C645.988 153.055 646.082 153.213 646.19 153.36L645.99 153.72L621.99 176.22C618.809 172.786 616.324 168.769 614.67 164.39L645.91 152.89ZM645.26 155.07L630.16 182.8C627.256 181.085 624.604 178.975 622.28 176.53L645.26 155.07ZM646.9 154.07L647.22 154.26L634.57 185.06C633.356 184.549 632.171 183.971 631.02 183.33L646.9 154.07ZM647.66 154.44C647.836 154.497 648.017 154.537 648.2 154.56L647.12 187.84C642.954 187.669 638.85 186.776 634.99 185.2L647.66 154.44ZM648.54 187.86H647.6L648.68 154.58C648.879 154.57 649.077 154.54 649.27 154.49L660.34 185.89C656.532 187.187 652.533 187.835 648.51 187.81L648.54 187.86ZM649.73 154.32C649.887 154.25 650.038 154.167 650.18 154.07L666.06 183.34C664.373 184.276 662.614 185.076 660.8 185.73L649.73 154.32ZM652.4 156.14L673.07 178.2C671.156 179.952 669.061 181.494 666.82 182.8L652.4 156.14ZM651.49 154.47L650.89 153.37C650.952 153.283 651.008 153.193 651.06 153.1L681.29 167.1C679.367 171.171 676.705 174.85 673.44 177.95L651.49 154.47ZM651.27 152.66C651.349 152.447 651.403 152.226 651.43 152L684.71 153.08C684.534 157.758 683.447 162.358 681.51 166.62L651.27 152.66ZM634.27 185.72L628.59 199.55C626.856 198.827 625.164 198.009 623.52 197.1L630.65 183.95C631.824 184.589 633.033 185.163 634.27 185.67V185.72ZM634.71 185.9C638.646 187.492 642.828 188.389 647.07 188.55L646.58 203.47C640.553 203.258 634.61 201.992 629.02 199.73L634.71 185.9ZM647.55 188.57H648.55C652.633 188.574 656.689 187.899 660.55 186.57L665.55 200.67C660.081 202.557 654.335 203.517 648.55 203.51H647.11L647.55 188.57ZM661.01 186.4C662.862 185.732 664.658 184.916 666.38 183.96L673.51 197.11C671.095 198.441 668.577 199.575 665.98 200.5L661.01 186.4ZM697.11 133.52L683.11 138.69C681.422 134.222 678.886 130.124 675.64 126.62L686.55 116.4C691.154 121.344 694.741 127.143 697.11 133.47V133.52ZM685.18 115.01L686.18 116.01L675.27 126.2C671.74 122.482 667.477 119.536 662.75 117.55L668.43 103.72C674.693 106.333 680.381 110.152 685.17 114.96L685.18 115.01ZM668 103.6L662.32 117.43C658.384 115.838 654.202 114.941 649.96 114.78L650.45 99.86C656.47 100.054 662.409 101.3 668 103.54V103.6ZM648.52 99.83H649.96L649.47 114.75H648.47C644.387 114.746 640.331 115.421 636.47 116.75L631.47 102.65C636.949 100.745 642.709 99.7711 648.51 99.77L648.52 99.83ZM631.05 102.83L636.05 116.93C631.394 118.614 627.123 121.215 623.49 124.58L613.27 113.67C618.39 108.868 624.437 105.163 631.04 102.78L631.05 102.83ZM611.82 114.96L612.82 113.96L623.04 124.87C619.711 128.033 616.999 131.787 615.04 135.94L601.46 129.67C604.03 124.201 607.536 119.223 611.82 114.96ZM601.32 130.09L614.9 136.36C612.917 140.716 611.806 145.417 611.63 150.2L596.71 149.71C596.942 142.931 598.508 136.263 601.32 130.09ZM596.67 151.61C596.67 151.13 596.67 150.65 596.67 150.17L611.59 150.65C611.59 150.97 611.59 151.303 611.59 151.65C611.602 155.915 612.357 160.144 613.82 164.15L599.82 169.32C597.748 163.648 596.682 157.658 596.67 151.62V151.61ZM599.92 169.76L613.92 164.59C615.608 169.058 618.144 173.156 621.39 176.66L610.52 186.89C605.895 181.932 602.293 176.111 599.92 169.76ZM611.82 188.28L610.82 187.28L621.73 177.06C624.106 179.56 626.819 181.718 629.79 183.47L622.65 196.62C618.69 194.327 615.048 191.523 611.82 188.28ZM699.98 245.92H596.98L622.82 198.33C624.509 199.262 626.249 200.099 628.03 200.84L626.21 205.27C625.135 204.931 623.969 205.024 622.962 205.531C621.955 206.037 621.185 206.917 620.816 207.982C620.447 209.048 620.508 210.215 620.986 211.236C621.464 212.257 622.322 213.051 623.377 213.45C624.432 213.848 625.6 213.82 626.634 213.37C627.668 212.92 628.486 212.085 628.914 211.042C629.341 209.998 629.345 208.829 628.924 207.783C628.503 206.737 627.691 205.896 626.66 205.44L628.48 201.02C634.229 203.345 640.342 204.644 646.54 204.86L646.39 209.39C645.267 209.452 644.212 209.951 643.451 210.779C642.689 211.606 642.28 212.699 642.312 213.823C642.343 214.948 642.812 216.016 643.618 216.8C644.424 217.585 645.505 218.023 646.63 218.023C647.755 218.023 648.835 217.585 649.642 216.8C650.448 216.016 650.917 214.948 650.948 213.823C650.98 212.699 650.571 211.606 649.809 210.779C649.048 209.951 647.993 209.452 646.87 209.39L647.02 204.85H648.51C654.463 204.856 660.374 203.866 666 201.92L667.55 206.33C666.526 206.808 665.728 207.666 665.327 208.722C664.926 209.779 664.952 210.95 665.401 211.987C665.85 213.024 666.686 213.845 667.731 214.276C668.775 214.706 669.947 214.713 670.996 214.293C672.045 213.873 672.89 213.061 673.349 212.028C673.809 210.996 673.847 209.825 673.457 208.765C673.067 207.704 672.279 206.838 671.259 206.349C670.24 205.861 669.071 205.79 668 206.15L666.45 201.76C669.12 200.807 671.708 199.64 674.19 198.27L699.98 245.92ZM674.31 196.59L667.17 183.44C669.453 182.095 671.585 180.509 673.53 178.71L683.82 189.61C680.937 192.287 677.761 194.629 674.35 196.59H674.31ZM685.13 188.28L684.13 189.28L673.92 178.38C677.249 175.217 679.961 171.463 681.92 167.31L695.5 173.58C692.938 179.044 689.442 184.018 685.17 188.28H685.13ZM695.67 173.14L682.09 166.87C684.069 162.524 685.18 157.832 685.36 153.06L700.28 153.55C700.057 160.317 698.504 166.973 695.71 173.14H695.67Z" fill="#80B7F8"/>
<path d="M777.16 185.67H721.59V267.09H777.16V185.67Z" fill="#80B7F8"/>
<path d="M824.59 217.33H769.02V266.63H824.59V217.33Z" fill="#80B7F8"/>
<path d="M584.7 210.09H553.53V251.47H584.7V210.09Z" fill="#8CAAA7"/>
<path d="M788.67 108.25H749.37V267.1H788.67V108.25Z" fill="#80B7F8" fill-opacity="0.48"/>
<path d="M853.39 267.09H801.55V174.34H840.85L853.39 267.09Z" fill="#80B7F8"/>
<path d="M876.09 245.92H830.69V267.09H876.09V245.92Z" fill="#8CAAA7"/>
<path d="M779.87 75.06H778.51V118.23H779.87V75.06Z" fill="#80B7F8"/>
<path d="M784.44 84.32H783.08V127.49H784.44V84.32Z" fill="#80B7F8"/>
<path d="M775.72 90.28H774.36V133.45H775.72V90.28Z" fill="#80B7F8"/>
<path d="M822.13 166.84H803.58V181.45H822.13V166.84Z" fill="#80B7F8"/>
<path d="M820.11 161.63H805.62V169.84H820.11V161.63Z" fill="#80B7F8"/>
<path d="M833.06 171.12H829.5V177.02H833.06V171.12Z" fill="#80B7F8"/>
<path d="M839.4 165.74H834.32V177.02H839.4V165.74Z" fill="#80B7F8"/>
<path d="M600.49 144.08H553.37V295.96H600.49V144.08Z" fill="#3775BE"/>
<path d="M604.01 144.98H549.85V146.52H604.01V144.98Z" fill="#6192CC"/>
<path d="M602.55 166.31H551.32V167.84H602.55V166.31Z" fill="#6192CC"/>
<path d="M602.55 186.97H551.32V188.5H602.55V186.97Z" fill="#6192CC"/>
<path d="M602.55 207.63H551.32V209.16H602.55V207.63Z" fill="#6192CC"/>
<path d="M602.55 228.29H551.32V229.82H602.55V228.29Z" fill="#6192CC"/>
<path d="M602.55 248.96H551.32V250.49H602.55V248.96Z" fill="#6192CC"/>
<path d="M602.55 269.62H551.32V271.15H602.55V269.62Z" fill="#6192CC"/>
<path d="M605.8 140.78H548.06V144.98H605.8V140.78Z" fill="#6192CC"/>
<path opacity="0.29" d="M573.46 171.34H568.56V183.47H573.46V171.34Z" fill="#558280"/>
<path opacity="0.29" d="M595.36 274.65H590.46V286.78H595.36V274.65Z" fill="#558280"/>
<path d="M572.37 134.99H556.34V142.88H572.37V134.99Z" fill="#3775BE"/>
<path d="M573.46 134.77H555.26V136.12H573.46V134.77Z" fill="#3775BE"/>
<path d="M485.84 295.96H423.07V151.65L485.84 136.3V295.96Z" fill="#3775BE"/>
<path d="M425.82 149.11H420.31V295.96H425.82V149.11Z" fill="#3775BE"/>
<path d="M441.52 144.97H436V295.95H441.52V144.97Z" fill="#3775BE"/>
<path d="M457.2 140.68H451.69V295.96H457.2V140.68Z" fill="#3775BE"/>
<path d="M472.9 137.17H467.39V295.95H472.9V137.17Z" fill="#3775BE"/>
<path d="M488.59 133.45H483.08V295.96H488.59V133.45Z" fill="#3775BE"/>
<path opacity="0.29" d="M434.57 161.43H427.25V172.58H434.57V161.43Z" fill="#558280"/>
<path opacity="0.29" d="M450.27 161.43H442.95V172.58H450.27V161.43Z" fill="#558280"/>
<path opacity="0.29" d="M481.65 161.43H474.33V172.58H481.65V161.43Z" fill="#558280"/>
<path opacity="0.29" d="M465.96 180.85H458.64V192H465.96V180.85Z" fill="#558280"/>
<path opacity="0.29" d="M481.65 180.85H474.33V192H481.65V180.85Z" fill="#558280"/>
<path opacity="0.29" d="M434.57 200.27H427.25V211.42H434.57V200.27Z" fill="#558280"/>
<path opacity="0.29" d="M450.27 200.27H442.95V211.42H450.27V200.27Z" fill="#558280"/>
<path opacity="0.29" d="M465.96 200.27H458.64V211.42H465.96V200.27Z" fill="#558280"/>
<path opacity="0.29" d="M434.57 219.69H427.25V230.84H434.57V219.69Z" fill="#558280"/>
<path opacity="0.29" d="M465.96 219.69H458.64V230.84H465.96V219.69Z" fill="#558280"/>
<path opacity="0.29" d="M481.65 219.69H474.33V230.84H481.65V219.69Z" fill="#558280"/>
<path opacity="0.29" d="M434.57 239.11H427.25V250.26H434.57V239.11Z" fill="#558280"/>
<path opacity="0.29" d="M450.27 239.11H442.95V250.26H450.27V239.11Z" fill="#558280"/>
<path opacity="0.29" d="M481.65 239.11H474.33V250.26H481.65V239.11Z" fill="#558280"/>
<path d="M434.57 258.53H427.25V269.68H434.57V258.53Z" fill="#3775BE"/>
<path d="M450.27 258.53H442.95V269.68H450.27V258.53Z" fill="#3775BE"/>
<path opacity="0.29" d="M481.65 258.53H474.33V269.68H481.65V258.53Z" fill="#3775BE"/>
<path opacity="0.29" d="M434.57 277.95H427.25V289.1H434.57V277.95Z" fill="#3775BE"/>
<path d="M481.65 277.95H474.33V289.1H481.65V277.95Z" fill="#3775BE"/>
<path d="M244.02 158.56V160.06H242.52V164.33H268.79V295.96H225.69V171.2V164.33V160.06H224.13V158.56H244.02Z" fill="#3775BE"/>
<path d="M354.36 218.35H317.44V295.96H354.36V218.35Z" fill="#3775BE"/>
<path d="M186.55 200.56H156.54V295.96H186.55V200.56Z" fill="#3775BE"/>
<path d="M213.3 220.44H180.6V295.96H213.3V220.44Z" fill="#3775BE"/>
<path d="M180.61 196.73H167.34V208.15H180.61V196.73Z" fill="#3775BE"/>
<path d="M217.71 219.19H182.85V221.98H217.71V219.19Z" fill="#558280"/>
<path d="M246.45 252.83H209.79V295.96H246.45V252.83Z" fill="#3775BE"/>
<path d="M121.12 217.75H91.3V295.96H121.12V217.75Z" fill="#3775BE"/>
<path d="M104.65 256.72H65.4199V295.95H104.65V256.72Z" fill="#3775BE"/>
<path d="M46.76 250.31H22.22V295.96H46.76V250.31Z" fill="#3775BE"/>
<path d="M99.99 281.66H41.99V295.96H99.99V281.66Z" fill="#3775BE"/>
<path d="M29.73 277.04H0V295.96H29.73V277.04Z" fill="#3775BE"/>
<path d="M167.33 267.09H121.12V295.95H167.33V267.09Z" fill="#3775BE"/>
<path d="M328.68 283.52H256.69V295.95H328.68V283.52Z" fill="#3775BE"/>
<path d="M456.31 283.52H384.32V295.95H456.31V283.52Z" fill="#3775BE"/>
<path d="M325.87 247.02H298.51L286.94 289.74H325.87V247.02Z" fill="#3775BE"/>
<path d="M339.28 184.85H338.52V232.24H339.28V184.85Z" fill="#3775BE"/>
<path d="M343.35 200.89H342.33V228.86H343.35V200.89Z" fill="#558280"/>
<path d="M350.72 205.85H336.88V219.69H350.72V205.85Z" fill="#3775BE"/>
<path d="M352.87 204.77H334.54V206.01H352.87V204.77Z" fill="#558280"/>
<path d="M392.37 255.93H347.64V295.96H392.37V255.93Z" fill="#3775BE"/>
<path d="M412.56 211.86H383.82V289.09H412.56V211.86Z" fill="#3775BE"/>
<path d="M541.96 226.38H496.05V295.95H541.96V226.38Z" fill="#3775BE"/>
<path d="M534 270.32H481.65V295.96H534V270.32Z" fill="#3775BE"/>
<path d="M573.46 286.78H539.42V295.96H573.46V286.78Z" fill="#3775BE"/>
<path d="M647.19 270.32H591.85V295.96H647.19V270.32Z" fill="#3775BE"/>
<path d="M613.89 295.96H682.76V203.21H613.89V295.96Z" fill="#3775BE"/>
<path d="M612.12 203.21H686.78V199.65H612.12V203.21Z" fill="#3775BE"/>
<path d="M649.45 208.79H679.71V189.98H649.45V208.79Z" fill="#3775BE"/>
<path d="M634.48 201.42H639.56V189.98H634.48V201.42Z" fill="#3775BE"/>
<path d="M623.8 201.42H629.39V189.98H623.8V201.42Z" fill="#3775BE"/>
<path d="M730.11 295.96H784.62V160.5H730.11V295.96Z" fill="#3775BE"/>
<path d="M728.55 162H786.16V158.17H728.55V162Z" fill="#3775BE"/>
<path d="M731.93 171.46H782.78V153.26H731.93V171.46Z" fill="#3775BE"/>
<path d="M758.75 165.7H778.89V145.82H758.75V165.7Z" fill="#3775BE"/>
<path d="M767.24 151.42H778.89V140.95H770.54L767.24 151.42Z" fill="#3775BE"/>
<path d="M773.06 155.58H774.19V132.27H773.06V155.58Z" fill="#2D527E"/>
<path d="M773.63 132.27C774.188 132.27 774.64 131.728 774.64 131.06C774.64 130.392 774.188 129.85 773.63 129.85C773.072 129.85 772.62 130.392 772.62 131.06C772.62 131.728 773.072 132.27 773.63 132.27Z" fill="#A5C1E2"/>
<path d="M801.55 240.03H777.15V295.95H801.55V240.03Z" fill="#3775BE"/>
<path d="M735.48 212.77H707.66V295.96H735.48V212.77Z" fill="#3775BE"/>
<path d="M721.59 295.96H682.4V251.46L715.47 266.12L721.59 295.96Z" fill="#3775BE"/>
<path d="M853.39 271.79H793.54V295.95H853.39V271.79Z" fill="#3775BE"/>
<path d="M866.05 199.5H831.28V295.96H866.05V199.5Z" fill="#3775BE"/>
<path d="M915.52 277.95H857.92V295.96H915.52V277.95Z" fill="#3775BE"/>
<path d="M867.64 197.73H829.5V200.89H867.64V197.73Z" fill="#3775BE"/>
<path d="M861.39 184.12H860.63V203.56H861.39V184.12Z" fill="#3775BE"/>
<path d="M856.31 186.58H855.55V202.17H856.31V186.58Z" fill="#3775BE"/>
<path d="M878.93 235.84H863.42V280.03H885.53L878.93 235.84Z" fill="#3775BE"/>
<g opacity="0.52">
<path opacity="0.52" d="M161.91 205.39H159.64V207.66H161.91V205.39Z" fill="white"/>
<path opacity="0.52" d="M166.47 205.39H164.2V207.66H166.47V205.39Z" fill="white"/>
<path opacity="0.52" d="M161.91 210.73H159.64V213H161.91V210.73Z" fill="white"/>
<path opacity="0.52" d="M166.47 210.73H164.2V213H166.47V210.73Z" fill="white"/>
<path opacity="0.52" d="M161.91 215.89H159.64V218.16H161.91V215.89Z" fill="white"/>
<path opacity="0.52" d="M171.54 205.39H169.27V207.66H171.54V205.39Z" fill="white"/>
</g>
<path opacity="0.5" d="M327.42 137.17H325.87V145.74H327.42V137.17Z" fill="white"/>
<path opacity="0.5" d="M332.76 137.17H331.21V145.74H332.76V137.17Z" fill="white"/>
<path opacity="0.5" d="M338.1 137.17H336.55V145.74H338.1V137.17Z" fill="white"/>
<path opacity="0.5" d="M343.44 137.17H341.89V145.74H343.44V137.17Z" fill="white"/>
<path opacity="0.5" d="M348.78 137.17H347.23V145.74H348.78V137.17Z" fill="white"/>
<path opacity="0.5" d="M354.12 137.17H352.57V145.74H354.12V137.17Z" fill="white"/>
<path opacity="0.5" d="M359.45 137.17H357.9V145.74H359.45V137.17Z" fill="white"/>
<path opacity="0.5" d="M364.79 137.17H363.24V145.74H364.79V137.17Z" fill="white"/>
<path opacity="0.5" d="M370.13 137.17H368.58V145.74H370.13V137.17Z" fill="white"/>
<path opacity="0.5" d="M375.47 137.17H373.92V145.74H375.47V137.17Z" fill="white"/>
<path opacity="0.5" d="M380.81 137.17H379.26V145.74H380.81V137.17Z" fill="white"/>
<path opacity="0.5" d="M327.42 149.11H325.87V157.68H327.42V149.11Z" fill="white"/>
<path opacity="0.5" d="M332.76 149.11H331.21V157.68H332.76V149.11Z" fill="white"/>
<path opacity="0.5" d="M338.1 149.11H336.55V157.68H338.1V149.11Z" fill="white"/>
<path opacity="0.5" d="M343.44 149.11H341.89V157.68H343.44V149.11Z" fill="white"/>
<path opacity="0.5" d="M348.78 149.11H347.23V157.68H348.78V149.11Z" fill="white"/>
<path opacity="0.5" d="M354.12 149.11H352.57V157.68H354.12V149.11Z" fill="white"/>
<path opacity="0.5" d="M359.45 149.11H357.9V157.68H359.45V149.11Z" fill="white"/>
<path opacity="0.5" d="M364.79 149.11H363.24V157.68H364.79V149.11Z" fill="white"/>
<path opacity="0.5" d="M370.13 149.11H368.58V157.68H370.13V149.11Z" fill="white"/>
<path opacity="0.5" d="M375.47 149.11H373.92V157.68H375.47V149.11Z" fill="white"/>
<path opacity="0.5" d="M380.81 149.11H379.26V157.68H380.81V149.11Z" fill="white"/>
<path opacity="0.5" d="M327.42 161.05H325.87V169.62H327.42V161.05Z" fill="white"/>
<path opacity="0.5" d="M332.76 161.05H331.21V169.62H332.76V161.05Z" fill="white"/>
<path opacity="0.5" d="M338.1 161.05H336.55V169.62H338.1V161.05Z" fill="white"/>
<path opacity="0.5" d="M343.44 161.05H341.89V169.62H343.44V161.05Z" fill="white"/>
<path opacity="0.5" d="M348.78 161.05H347.23V169.62H348.78V161.05Z" fill="white"/>
<path opacity="0.5" d="M354.12 161.05H352.57V169.62H354.12V161.05Z" fill="white"/>
<path opacity="0.5" d="M359.45 161.05H357.9V169.62H359.45V161.05Z" fill="white"/>
<path opacity="0.5" d="M364.79 161.05H363.24V169.62H364.79V161.05Z" fill="white"/>
<path opacity="0.5" d="M370.13 161.05H368.58V169.62H370.13V161.05Z" fill="white"/>
<path opacity="0.5" d="M375.47 161.05H373.92V169.62H375.47V161.05Z" fill="white"/>
<path opacity="0.5" d="M380.81 161.05H379.26V169.62H380.81V161.05Z" fill="white"/>
<path opacity="0.5" d="M343.44 172.99H341.89V181.56H343.44V172.99Z" fill="white"/>
<path opacity="0.5" d="M348.78 172.99H347.23V181.56H348.78V172.99Z" fill="white"/>
<path opacity="0.5" d="M354.12 172.99H352.57V181.56H354.12V172.99Z" fill="white"/>
<path opacity="0.5" d="M359.45 172.99H357.9V181.56H359.45V172.99Z" fill="white"/>
<path opacity="0.5" d="M364.79 172.99H363.24V181.56H364.79V172.99Z" fill="white"/>
<path opacity="0.5" d="M370.13 172.99H368.58V181.56H370.13V172.99Z" fill="white"/>
<path opacity="0.5" d="M375.47 172.99H373.92V181.56H375.47V172.99Z" fill="white"/>
<path opacity="0.5" d="M380.81 172.99H379.26V181.56H380.81V172.99Z" fill="white"/>
<path opacity="0.5" d="M348.78 185.59H347.23V194.16H348.78V185.59Z" fill="white"/>
<path opacity="0.5" d="M354.12 185.59H352.57V194.16H354.12V185.59Z" fill="white"/>
<path opacity="0.5" d="M359.45 185.59H357.9V194.16H359.45V185.59Z" fill="white"/>
<path opacity="0.5" d="M364.79 185.59H363.24V194.16H364.79V185.59Z" fill="white"/>
<path opacity="0.5" d="M370.13 185.59H368.58V194.16H370.13V185.59Z" fill="white"/>
<path opacity="0.5" d="M375.47 185.59H373.92V194.16H375.47V185.59Z" fill="white"/>
<path opacity="0.5" d="M380.81 185.59H379.26V194.16H380.81V185.59Z" fill="white"/>
<path opacity="0.33" d="M432.74 158.46H429.08V167.74H432.74V158.46Z" fill="white"/>
<path opacity="0.33" d="M432.74 176.21H429.08V185.49H432.74V176.21Z" fill="white"/>
<path opacity="0.33" d="M432.74 193.97H429.08V203.25H432.74V193.97Z" fill="white"/>
<path opacity="0.33" d="M432.74 211.72H429.08V221H432.74V211.72Z" fill="white"/>
<path opacity="0.33" d="M432.74 228.46H429.08V237.74H432.74V228.46Z" fill="white"/>
<path opacity="0.33" d="M432.74 246.22H429.08V255.5H432.74V246.22Z" fill="white"/>
<path opacity="0.33" d="M448.44 158.46H444.78V167.74H448.44V158.46Z" fill="white"/>
<path opacity="0.33" d="M448.44 176.21H444.78V185.49H448.44V176.21Z" fill="white"/>
<path opacity="0.33" d="M448.44 193.97H444.78V203.25H448.44V193.97Z" fill="white"/>
<path opacity="0.33" d="M448.44 211.72H444.78V221H448.44V211.72Z" fill="white"/>
<path opacity="0.33" d="M448.44 228.46H444.78V237.74H448.44V228.46Z" fill="white"/>
<path opacity="0.33" d="M448.44 246.22H444.78V255.5H448.44V246.22Z" fill="white"/>
<path opacity="0.33" d="M464.13 158.46H460.47V167.74H464.13V158.46Z" fill="white"/>
<path opacity="0.33" d="M464.13 176.21H460.47V185.49H464.13V176.21Z" fill="white"/>
<path opacity="0.33" d="M464.13 193.97H460.47V203.25H464.13V193.97Z" fill="white"/>
<path opacity="0.33" d="M464.13 211.72H460.47V221H464.13V211.72Z" fill="white"/>
<path opacity="0.33" d="M464.13 228.46H460.47V237.74H464.13V228.46Z" fill="white"/>
<path opacity="0.33" d="M464.13 246.22H460.47V255.5H464.13V246.22Z" fill="white"/>
<path opacity="0.33" d="M479.82 158.46H476.16V167.74H479.82V158.46Z" fill="white"/>
<path opacity="0.33" d="M479.82 176.21H476.16V185.49H479.82V176.21Z" fill="white"/>
<path opacity="0.33" d="M479.82 193.97H476.16V203.25H479.82V193.97Z" fill="white"/>
<path opacity="0.33" d="M479.82 211.72H476.16V221H479.82V211.72Z" fill="white"/>
<path opacity="0.33" d="M479.82 228.46H476.16V237.74H479.82V228.46Z" fill="white"/>
<path opacity="0.33" d="M479.82 246.22H476.16V255.5H479.82V246.22Z" fill="white"/>
<path opacity="0.5" d="M373.18 29.01H370.13V37.13H373.18V29.01Z" fill="white"/>
<path opacity="0.5" d="M380.7 29.01H377.65V37.13H380.7V29.01Z" fill="white"/>
<path opacity="0.5" d="M388.21 29.01H385.16V37.13H388.21V29.01Z" fill="white"/>
<path opacity="0.5" d="M395.72 29.01H392.67V37.13H395.72V29.01Z" fill="white"/>
<path opacity="0.5" d="M373.18 42.54H370.13V50.66H373.18V42.54Z" fill="white"/>
<path opacity="0.5" d="M380.7 42.54H377.65V50.66H380.7V42.54Z" fill="white"/>
<path opacity="0.5" d="M388.21 42.54H385.16V50.66H388.21V42.54Z" fill="white"/>
<path opacity="0.5" d="M395.72 42.54H392.67V50.66H395.72V42.54Z" fill="white"/>
<path opacity="0.5" d="M373.18 56.07H370.13V64.19H373.18V56.07Z" fill="white"/>
<path opacity="0.5" d="M380.7 56.07H377.65V64.19H380.7V56.07Z" fill="white"/>
<path opacity="0.5" d="M404.25 29.01H401.2V37.13H404.25V29.01Z" fill="white"/>
<path opacity="0.4" d="M169.28 111.31H167.34V118.76H169.28V111.31Z" fill="white"/>
<path opacity="0.4" d="M176.11 111.31H174.17V118.76H176.11V111.31Z" fill="white"/>
<path opacity="0.4" d="M184.1 111.31H182.16V118.76H184.1V111.31Z" fill="white"/>
<path opacity="0.4" d="M190.94 111.31H189V118.76H190.94V111.31Z" fill="white"/>
<path opacity="0.4" d="M154.1 111.31H152.16V118.76H154.1V111.31Z" fill="white"/>
<path opacity="0.4" d="M160.93 111.31H158.99V118.76H160.93V111.31Z" fill="white"/>
<path opacity="0.4" d="M169.28 124.24H167.34V131.69H169.28V124.24Z" fill="white"/>
<path opacity="0.4" d="M176.11 124.24H174.17V131.69H176.11V124.24Z" fill="white"/>
<path opacity="0.4" d="M184.1 124.24H182.16V131.69H184.1V124.24Z" fill="white"/>
<path opacity="0.4" d="M190.94 124.24H189V131.69H190.94V124.24Z" fill="white"/>
<path opacity="0.4" d="M154.1 124.24H152.16V131.69H154.1V124.24Z" fill="white"/>
<path opacity="0.4" d="M160.93 124.24H158.99V131.69H160.93V124.24Z" fill="white"/>
<path opacity="0.4" d="M169.28 137.17H167.34V144.62H169.28V137.17Z" fill="white"/>
<path opacity="0.4" d="M176.11 137.17H174.17V144.62H176.11V137.17Z" fill="white"/>
<path opacity="0.4" d="M184.1 137.17H182.16V144.62H184.1V137.17Z" fill="white"/>
<path opacity="0.4" d="M190.94 137.17H189V144.62H190.94V137.17Z" fill="white"/>
<path opacity="0.4" d="M154.1 137.17H152.16V144.62H154.1V137.17Z" fill="white"/>
<path opacity="0.4" d="M160.93 137.17H158.99V144.62H160.93V137.17Z" fill="white"/>
<path opacity="0.5" d="M531.74 168.38H528.74V179.93H531.74V168.38Z" fill="white"/>
<path opacity="0.5" d="M540.92 168.38H537.92V179.93H540.92V168.38Z" fill="white"/>
<path opacity="0.5" d="M549.56 168.38H546.56V179.93H549.56V168.38Z" fill="white"/>
<path opacity="0.33" d="M737.77 170.78H735.49V177.27H737.77V170.78Z" fill="white"/>
<path opacity="0.33" d="M744.91 170.78H742.63V177.27H744.91V170.78Z" fill="white"/>
<path opacity="0.33" d="M737.77 170.78H735.49V177.27H737.77V170.78Z" fill="white"/>
<path opacity="0.33" d="M744.91 170.78H742.63V177.27H744.91V170.78Z" fill="white"/>
<path opacity="0.33" d="M751.65 170.78H749.37V177.27H751.65V170.78Z" fill="white"/>
<path opacity="0.33" d="M758.79 170.78H756.51V177.27H758.79V170.78Z" fill="white"/>
<path opacity="0.33" d="M737.77 182.43H735.49V188.92H737.77V182.43Z" fill="white"/>
<path opacity="0.33" d="M744.91 182.43H742.63V188.92H744.91V182.43Z" fill="white"/>
<path opacity="0.33" d="M737.77 182.43H735.49V188.92H737.77V182.43Z" fill="white"/>
<path opacity="0.33" d="M744.91 182.43H742.63V188.92H744.91V182.43Z" fill="white"/>
<path opacity="0.33" d="M751.65 182.43H749.37V188.92H751.65V182.43Z" fill="white"/>
<path opacity="0.33" d="M758.79 182.43H756.51V188.92H758.79V182.43Z" fill="white"/>
<path opacity="0.33" d="M737.77 194.82H735.49V201.31H737.77V194.82Z" fill="white"/>
<path opacity="0.33" d="M744.91 194.82H742.63V201.31H744.91V194.82Z" fill="white"/>
<path opacity="0.33" d="M737.77 194.82H735.49V201.31H737.77V194.82Z" fill="white"/>
<path opacity="0.33" d="M744.91 194.82H742.63V201.31H744.91V194.82Z" fill="white"/>
<path opacity="0.33" d="M751.65 194.82H749.37V201.31H751.65V194.82Z" fill="white"/>
<path opacity="0.33" d="M758.79 194.82H756.51V201.31H758.79V194.82Z" fill="white"/>
<path opacity="0.33" d="M766.59 170.78H764.31V177.27H766.59V170.78Z" fill="white"/>
<path opacity="0.33" d="M766.59 182.43H764.31V188.92H766.59V182.43Z" fill="white"/>
<path opacity="0.33" d="M773.73 170.78H771.45V177.27H773.73V170.78Z" fill="white"/>
<path opacity="0.33" d="M560.06 151.51H557.61V161.64H560.06V151.51Z" fill="white"/>
<path opacity="0.33" d="M572.24 151.51H569.79V161.64H572.24V151.51Z" fill="white"/>
<path opacity="0.33" d="M584.41 151.51H581.96V161.64H584.41V151.51Z" fill="white"/>
<path opacity="0.33" d="M596.58 151.51H594.13V161.64H596.58V151.51Z" fill="white"/>
<path opacity="0.33" d="M560.06 172.35H557.61V182.48H560.06V172.35Z" fill="white"/>
<path opacity="0.33" d="M572.24 172.35H569.79V182.48H572.24V172.35Z" fill="white"/>
<path opacity="0.33" d="M584.41 172.35H581.96V182.48H584.41V172.35Z" fill="white"/>
<path opacity="0.33" d="M596.58 172.35H594.13V182.48H596.58V172.35Z" fill="white"/>
<path opacity="0.33" d="M560.06 193.71H557.61V203.84H560.06V193.71Z" fill="white"/>
<path opacity="0.33" d="M572.24 193.71H569.79V203.84H572.24V193.71Z" fill="white"/>
<path opacity="0.33" d="M584.41 193.71H581.96V203.84H584.41V193.71Z" fill="white"/>
<path opacity="0.33" d="M596.58 193.71H594.13V203.84H596.58V193.71Z" fill="white"/>
<path opacity="0.33" d="M560.06 215.07H557.61V225.2H560.06V215.07Z" fill="white"/>
<path opacity="0.33" d="M572.24 215.07H569.79V225.2H572.24V215.07Z" fill="white"/>
<path opacity="0.33" d="M584.41 215.07H581.96V225.2H584.41V215.07Z" fill="white"/>
<path opacity="0.33" d="M596.58 215.07H594.13V225.2H596.58V215.07Z" fill="white"/>
<path opacity="0.33" d="M560.06 234.47H557.61V244.6H560.06V234.47Z" fill="white"/>
<path opacity="0.33" d="M572.24 234.47H569.79V244.6H572.24V234.47Z" fill="white"/>
<path opacity="0.33" d="M584.41 234.47H581.96V244.6H584.41V234.47Z" fill="white"/>
<path opacity="0.33" d="M560.06 256.11H557.61V266.24H560.06V256.11Z" fill="white"/>
<path opacity="0.33" d="M572.24 256.11H569.79V266.24H572.24V256.11Z" fill="white"/>
<path opacity="0.33" d="M584.41 256.11H581.96V266.24H584.41V256.11Z" fill="white"/>
<path opacity="0.33" d="M596.58 234.47H594.13V244.6H596.58V234.47Z" fill="white"/>
<path opacity="0.33" d="M836.86 205.04H834.36V210.85H836.86V205.04Z" fill="white"/>
<path opacity="0.33" d="M836.86 214.42H834.36V220.23H836.86V214.42Z" fill="white"/>
<path opacity="0.33" d="M843.28 205.04H840.78V210.85H843.28V205.04Z" fill="white"/>
</svg>
